<svg xmlns="http://www.w3.org/2000/svg" width="1920" height="478.695" viewBox="0 0 1920 478.695">
  <rect id="Rectangle_2" data-name="Rectangle 2" width="1920" height="42.539" transform="translate(0 436.156)" fill="#0100a6"/>
  <rect id="Rectangle_3" data-name="Rectangle 3" width="1920" height="42.539" transform="translate(0 415.387)" fill="#0105a8"/>
  <rect id="Rectangle_4" data-name="Rectangle 4" width="1920" height="42.539" transform="translate(0 394.617)" fill="#010ba9"/>
  <rect id="Rectangle_5" data-name="Rectangle 5" width="1920" height="42.539" transform="translate(0 373.848)" fill="#0110ab"/>
  <rect id="Rectangle_6" data-name="Rectangle 6" width="1920" height="42.539" transform="translate(0 353.079)" fill="#0116ad"/>
  <rect id="Rectangle_7" data-name="Rectangle 7" width="1920" height="42.539" transform="translate(0 332.309)" fill="#011bae"/>
  <rect id="Rectangle_8" data-name="Rectangle 8" width="1920" height="42.539" transform="translate(0 311.54)" fill="#0121b0"/>
  <rect id="Rectangle_9" data-name="Rectangle 9" width="1920" height="42.539" transform="translate(0 290.771)" fill="#0126b2"/>
  <rect id="Rectangle_10" data-name="Rectangle 10" width="1920" height="42.539" transform="translate(0 270.001)" fill="#012cb3"/>
  <rect id="Rectangle_11" data-name="Rectangle 11" width="1920" height="42.539" transform="translate(0 249.232)" fill="#0131b5"/>
  <rect id="Rectangle_12" data-name="Rectangle 12" width="1920" height="42.539" transform="translate(0 228.463)" fill="#0137b7"/>
  <rect id="Rectangle_13" data-name="Rectangle 13" width="1920" height="42.539" transform="translate(0 207.693)" fill="#013cb8"/>
  <rect id="Rectangle_14" data-name="Rectangle 14" width="1920" height="42.539" transform="translate(0 186.924)" fill="#0142ba"/>
  <rect id="Rectangle_15" data-name="Rectangle 15" width="1920" height="42.539" transform="translate(0 166.155)" fill="#0147bc"/>
  <rect id="Rectangle_16" data-name="Rectangle 16" width="1920" height="42.539" transform="translate(0 145.385)" fill="#014dbd"/>
  <rect id="Rectangle_17" data-name="Rectangle 17" width="1920" height="42.539" transform="translate(0 124.616)" fill="#0152bf"/>
  <rect id="Rectangle_18" data-name="Rectangle 18" width="1920" height="42.539" transform="translate(0 103.847)" fill="#0158c1"/>
  <rect id="Rectangle_19" data-name="Rectangle 19" width="1920" height="42.539" transform="translate(0 83.077)" fill="#015dc2"/>
  <rect id="Rectangle_20" data-name="Rectangle 20" width="1920" height="42.539" transform="translate(0 62.308)" fill="#0163c4"/>
  <rect id="Rectangle_21" data-name="Rectangle 21" width="1920" height="42.539" transform="translate(0 41.539)" fill="#0168c6"/>
  <rect id="Rectangle_22" data-name="Rectangle 22" width="1920" height="42.539" transform="translate(0 20.769)" fill="#016ec7"/>
  <rect id="Rectangle_23" data-name="Rectangle 23" width="1920" height="42.539" fill="#0173c9"/>
</svg>
