<svg xmlns="http://www.w3.org/2000/svg" width="1920" height="297.436" viewBox="0 0 1920 297.436">
  <rect id="Rectangle_24" data-name="Rectangle 24" width="1920" height="297.436"/>
  <rect id="Rectangle_14833" data-name="Rectangle 14833" width="3.348" height="3.348" transform="translate(1318.818 215.95)" fill="#ccc"/>
  <rect id="Rectangle_14834" data-name="Rectangle 14834" width="3.348" height="3.348" transform="translate(1543.125 72.832)" fill="#ccc"/>
  <rect id="Rectangle_14835" data-name="Rectangle 14835" width="1.84" height="1.84" transform="translate(1296.58 57.918)" fill="#ccc"/>
  <rect id="Rectangle_14836" data-name="Rectangle 14836" width="3.348" height="3.348" transform="translate(1440.201 167.503)" fill="#ccc"/>
  <rect id="Rectangle_14837" data-name="Rectangle 14837" width="3.348" height="3.348" transform="translate(1760.826 143.696)" fill="#ccc"/>
  <rect id="Rectangle_14838" data-name="Rectangle 14838" width="1.634" height="1.634" transform="translate(1423.165 55.536)" fill="#ccc"/>
  <rect id="Rectangle_14839" data-name="Rectangle 14839" width="1.674" height="1.674" transform="translate(1518.75 99.774)" fill="#ccc"/>
  <rect id="Rectangle_14840" data-name="Rectangle 14840" width="1.674" height="1.674" transform="translate(1344.842 179.085)" fill="#ccc"/>
  <rect id="Rectangle_14841" data-name="Rectangle 14841" width="1.674" height="1.674" transform="translate(1891.271 103.782)" fill="#ccc"/>
  <rect id="Rectangle_14842" data-name="Rectangle 14842" width="1.674" height="1.674" transform="translate(1757.4 33.764)" fill="#ccc"/>
  <rect id="Rectangle_14843" data-name="Rectangle 14843" width="1.674" height="1.674" transform="translate(1792.629 132.846)" fill="#ccc"/>
  <rect id="Rectangle_14844" data-name="Rectangle 14844" width="1.674" height="1.674" transform="translate(1628.329 139.848)" fill="#ccc"/>
  <rect id="Rectangle_14845" data-name="Rectangle 14845" width="1.674" height="1.674" transform="translate(1609.788 46.007)" fill="#ccc"/>
  <rect id="Rectangle_14846" data-name="Rectangle 14846" width="1.674" height="1.674" transform="translate(1592.615 232.098)" fill="#ccc"/>
  <rect id="Rectangle_14847" data-name="Rectangle 14847" width="1.674" height="1.674" transform="translate(1867.447 183.445)" fill="#ccc"/>
  <rect id="Rectangle_14848" data-name="Rectangle 14848" width="1.674" height="1.674" transform="translate(1700.152 231.261)" fill="#ccc"/>
  <rect id="Rectangle_14849" data-name="Rectangle 14849" width="1.674" height="1.674" transform="translate(1482.611 204.186)" fill="#ccc"/>
  <rect id="Rectangle_14850" data-name="Rectangle 14850" width="3.348" height="3.348" transform="translate(1833.951 67.505)" fill="#ccc"/>
  <rect id="Rectangle_14851" data-name="Rectangle 14851" width="3.348" height="3.348" transform="translate(1657.701 89.917)" fill="#ccc"/>
  <rect id="Rectangle_14852" data-name="Rectangle 14852" width="3.348" height="3.348" transform="translate(1826.451 241.814)" fill="#ccc"/>
  <rect id="Rectangle_14853" data-name="Rectangle 14853" width="3.348" height="3.348" transform="translate(619.07 77.445) rotate(180)" fill="#ccc"/>
  <rect id="Rectangle_14854" data-name="Rectangle 14854" width="3.348" height="3.348" transform="translate(394.762 220.563) rotate(180)" fill="#ccc"/>
  <rect id="Rectangle_14855" data-name="Rectangle 14855" width="1.84" height="1.84" transform="translate(641.307 235.477) rotate(180)" fill="#ccc"/>
  <rect id="Rectangle_14856" data-name="Rectangle 14856" width="3.348" height="3.348" transform="translate(497.686 125.892) rotate(180)" fill="#ccc"/>
  <rect id="Rectangle_14857" data-name="Rectangle 14857" width="3.348" height="3.348" transform="translate(177.061 149.699) rotate(180)" fill="#ccc"/>
  <rect id="Rectangle_14858" data-name="Rectangle 14858" width="1.634" height="1.634" transform="translate(514.723 237.859) rotate(180)" fill="#ccc"/>
  <rect id="Rectangle_14859" data-name="Rectangle 14859" width="1.674" height="1.674" transform="translate(419.137 193.621) rotate(180)" fill="#ccc"/>
  <rect id="Rectangle_14860" data-name="Rectangle 14860" width="1.674" height="1.674" transform="translate(593.046 114.31) rotate(180)" fill="#ccc"/>
  <rect id="Rectangle_14861" data-name="Rectangle 14861" width="1.674" height="1.674" transform="translate(46.617 189.613) rotate(180)" fill="#ccc"/>
  <rect id="Rectangle_14862" data-name="Rectangle 14862" width="1.674" height="1.674" transform="translate(180.488 259.631) rotate(180)" fill="#ccc"/>
  <rect id="Rectangle_14863" data-name="Rectangle 14863" width="1.674" height="1.674" transform="translate(145.259 160.548) rotate(180)" fill="#ccc"/>
  <rect id="Rectangle_14864" data-name="Rectangle 14864" width="1.674" height="1.674" transform="translate(309.559 153.546) rotate(180)" fill="#ccc"/>
  <rect id="Rectangle_14865" data-name="Rectangle 14865" width="1.674" height="1.674" transform="translate(328.099 247.388) rotate(180)" fill="#ccc"/>
  <rect id="Rectangle_14866" data-name="Rectangle 14866" width="1.674" height="1.674" transform="translate(345.272 61.297) rotate(180)" fill="#ccc"/>
  <rect id="Rectangle_14867" data-name="Rectangle 14867" width="1.674" height="1.674" transform="translate(70.44 109.95) rotate(180)" fill="#ccc"/>
  <rect id="Rectangle_14868" data-name="Rectangle 14868" width="1.674" height="1.674" transform="translate(237.735 62.134) rotate(180)" fill="#ccc"/>
  <rect id="Rectangle_14869" data-name="Rectangle 14869" width="1.674" height="1.674" transform="translate(455.276 89.209) rotate(180)" fill="#ccc"/>
  <rect id="Rectangle_14870" data-name="Rectangle 14870" width="3.348" height="3.348" transform="translate(103.936 225.89) rotate(180)" fill="#ccc"/>
  <rect id="Rectangle_14871" data-name="Rectangle 14871" width="3.348" height="3.348" transform="translate(280.186 203.478) rotate(180)" fill="#ccc"/>
  <rect id="Rectangle_14872" data-name="Rectangle 14872" width="3.348" height="3.348" transform="translate(111.436 51.581) rotate(180)" fill="#ccc"/>
</svg>
